<mxfile host="app.diagrams.net" modified="2021-04-27T14:58:34.984Z" agent="5.0 (Windows NT 10.0; Win64; x64) AppleWebKit/537.36 (KHTML, like Gecko) Chrome/88.0.4324.190 Safari/537.36" etag="WT4BN75SaW8rX0duOBgG" version="14.6.6" type="github">
  <diagram id="prtHgNgQTEPvFCAcTncT" name="Page-1">
    <mxGraphModel dx="1209" dy="599" grid="1" gridSize="10" guides="1" tooltips="1" connect="1" arrows="1" fold="1" page="1" pageScale="1" pageWidth="827" pageHeight="1169" math="0" shadow="0">
      <root>
        <mxCell id="0" />
        <mxCell id="1" parent="0" />
        <mxCell id="dNxyNK7c78bLwvsdeMH5-11" value="" style="swimlane;html=1;startSize=20;horizontal=1;containerType=tree;glass=0;swimlaneFillColor=none;dashed=1;fillColor=none;strokeColor=none;" parent="1" vertex="1">
          <mxGeometry x="24" y="80" width="780" height="270" as="geometry" />
        </mxCell>
        <mxCell id="3as7ViMR6er_9PcksfhW-23" value="" style="rounded=1;whiteSpace=wrap;html=1;gradientColor=#CCCCFF;gradientDirection=east;dashed=1;" parent="dNxyNK7c78bLwvsdeMH5-11" vertex="1">
          <mxGeometry x="100" y="170" width="240" height="63.75" as="geometry" />
        </mxCell>
        <mxCell id="3as7ViMR6er_9PcksfhW-22" value="" style="rounded=1;whiteSpace=wrap;html=1;gradientColor=#CCCCFF;gradientDirection=east;dashed=1;" parent="dNxyNK7c78bLwvsdeMH5-11" vertex="1">
          <mxGeometry x="100" y="50" width="240" height="60" as="geometry" />
        </mxCell>
        <mxCell id="3as7ViMR6er_9PcksfhW-1" value="数据源" style="shape=datastore;whiteSpace=wrap;html=1;" parent="dNxyNK7c78bLwvsdeMH5-11" vertex="1">
          <mxGeometry x="20" y="115" width="60" height="60" as="geometry" />
        </mxCell>
        <mxCell id="3as7ViMR6er_9PcksfhW-2" value="第1层" style="rounded=1;whiteSpace=wrap;html=1;" parent="dNxyNK7c78bLwvsdeMH5-11" vertex="1">
          <mxGeometry x="110" y="70" width="40" height="35" as="geometry" />
        </mxCell>
        <mxCell id="3as7ViMR6er_9PcksfhW-5" value="第2层" style="rounded=1;whiteSpace=wrap;html=1;" parent="dNxyNK7c78bLwvsdeMH5-11" vertex="1">
          <mxGeometry x="170" y="70" width="40" height="35" as="geometry" />
        </mxCell>
        <mxCell id="3as7ViMR6er_9PcksfhW-6" value="第n层" style="rounded=1;whiteSpace=wrap;html=1;" parent="dNxyNK7c78bLwvsdeMH5-11" vertex="1">
          <mxGeometry x="290" y="70" width="40" height="35" as="geometry" />
        </mxCell>
        <mxCell id="3as7ViMR6er_9PcksfhW-7" value="" style="endArrow=classic;html=1;exitX=1;exitY=0.5;exitDx=0;exitDy=0;entryX=0;entryY=0.5;entryDx=0;entryDy=0;strokeWidth=2;" parent="dNxyNK7c78bLwvsdeMH5-11" source="3as7ViMR6er_9PcksfhW-2" target="3as7ViMR6er_9PcksfhW-5" edge="1">
          <mxGeometry width="50" height="50" relative="1" as="geometry">
            <mxPoint x="360" y="265" as="sourcePoint" />
            <mxPoint x="410" y="215" as="targetPoint" />
          </mxGeometry>
        </mxCell>
        <mxCell id="3as7ViMR6er_9PcksfhW-8" value="" style="edgeStyle=segmentEdgeStyle;endArrow=classic;html=1;strokeWidth=2;exitX=1;exitY=0.5;exitDx=0;exitDy=0;entryX=0;entryY=0.5;entryDx=0;entryDy=0;" parent="dNxyNK7c78bLwvsdeMH5-11" source="3as7ViMR6er_9PcksfhW-1" target="3as7ViMR6er_9PcksfhW-2" edge="1">
          <mxGeometry width="50" height="50" relative="1" as="geometry">
            <mxPoint x="350" y="250" as="sourcePoint" />
            <mxPoint x="90" y="70" as="targetPoint" />
            <Array as="points">
              <mxPoint x="90" y="145" />
              <mxPoint x="90" y="88" />
            </Array>
          </mxGeometry>
        </mxCell>
        <mxCell id="3as7ViMR6er_9PcksfhW-12" value="&lt;font size=&quot;1&quot;&gt;&lt;b style=&quot;font-size: 14px&quot;&gt;……&lt;/b&gt;&lt;/font&gt;" style="text;html=1;strokeColor=none;fillColor=none;align=center;verticalAlign=middle;whiteSpace=wrap;rounded=0;" parent="dNxyNK7c78bLwvsdeMH5-11" vertex="1">
          <mxGeometry x="230" y="70" width="40" height="20" as="geometry" />
        </mxCell>
        <mxCell id="3as7ViMR6er_9PcksfhW-14" value="第1层" style="rounded=1;whiteSpace=wrap;html=1;" parent="dNxyNK7c78bLwvsdeMH5-11" vertex="1">
          <mxGeometry x="110" y="190" width="40" height="35" as="geometry" />
        </mxCell>
        <mxCell id="3as7ViMR6er_9PcksfhW-15" value="第2层" style="rounded=1;whiteSpace=wrap;html=1;" parent="dNxyNK7c78bLwvsdeMH5-11" vertex="1">
          <mxGeometry x="170" y="190" width="40" height="35" as="geometry" />
        </mxCell>
        <mxCell id="3as7ViMR6er_9PcksfhW-16" value="第n层" style="rounded=1;whiteSpace=wrap;html=1;" parent="dNxyNK7c78bLwvsdeMH5-11" vertex="1">
          <mxGeometry x="290" y="190" width="40" height="35" as="geometry" />
        </mxCell>
        <mxCell id="3as7ViMR6er_9PcksfhW-17" value="" style="endArrow=classic;html=1;exitX=1;exitY=0.5;exitDx=0;exitDy=0;entryX=0;entryY=0.5;entryDx=0;entryDy=0;strokeWidth=2;" parent="dNxyNK7c78bLwvsdeMH5-11" source="3as7ViMR6er_9PcksfhW-14" target="3as7ViMR6er_9PcksfhW-15" edge="1">
          <mxGeometry width="50" height="50" relative="1" as="geometry">
            <mxPoint x="320" y="305" as="sourcePoint" />
            <mxPoint x="370" y="255" as="targetPoint" />
          </mxGeometry>
        </mxCell>
        <mxCell id="3as7ViMR6er_9PcksfhW-18" value="" style="edgeStyle=segmentEdgeStyle;endArrow=classic;html=1;strokeWidth=2;entryX=0;entryY=0.5;entryDx=0;entryDy=0;exitX=1;exitY=0.5;exitDx=0;exitDy=0;" parent="dNxyNK7c78bLwvsdeMH5-11" source="3as7ViMR6er_9PcksfhW-1" target="3as7ViMR6er_9PcksfhW-14" edge="1">
          <mxGeometry width="50" height="50" relative="1" as="geometry">
            <mxPoint x="80" y="150" as="sourcePoint" />
            <mxPoint x="50" y="110" as="targetPoint" />
            <Array as="points">
              <mxPoint x="90" y="145" />
              <mxPoint x="90" y="208" />
            </Array>
          </mxGeometry>
        </mxCell>
        <mxCell id="3as7ViMR6er_9PcksfhW-19" value="&lt;font size=&quot;1&quot;&gt;&lt;b style=&quot;font-size: 14px&quot;&gt;……&lt;/b&gt;&lt;/font&gt;" style="text;html=1;strokeColor=none;fillColor=none;align=center;verticalAlign=middle;whiteSpace=wrap;rounded=0;" parent="dNxyNK7c78bLwvsdeMH5-11" vertex="1">
          <mxGeometry x="230" y="190" width="40" height="20" as="geometry" />
        </mxCell>
        <mxCell id="3as7ViMR6er_9PcksfhW-20" value="" style="endArrow=classic;html=1;exitX=1;exitY=0.5;exitDx=0;exitDy=0;strokeWidth=2;" parent="dNxyNK7c78bLwvsdeMH5-11" source="3as7ViMR6er_9PcksfhW-15" edge="1">
          <mxGeometry width="50" height="50" relative="1" as="geometry">
            <mxPoint x="160" y="217.5" as="sourcePoint" />
            <mxPoint x="230" y="208" as="targetPoint" />
          </mxGeometry>
        </mxCell>
        <mxCell id="3as7ViMR6er_9PcksfhW-21" value="" style="endArrow=classic;html=1;strokeWidth=2;entryX=0;entryY=0.5;entryDx=0;entryDy=0;" parent="dNxyNK7c78bLwvsdeMH5-11" target="3as7ViMR6er_9PcksfhW-16" edge="1">
          <mxGeometry width="50" height="50" relative="1" as="geometry">
            <mxPoint x="270" y="208" as="sourcePoint" />
            <mxPoint x="220" y="218" as="targetPoint" />
          </mxGeometry>
        </mxCell>
        <mxCell id="3as7ViMR6er_9PcksfhW-26" value="教师模型（预训练）" style="text;html=1;strokeColor=none;fillColor=none;align=center;verticalAlign=middle;whiteSpace=wrap;rounded=0;dashed=1;" parent="dNxyNK7c78bLwvsdeMH5-11" vertex="1">
          <mxGeometry x="170" y="50" width="110" height="20" as="geometry" />
        </mxCell>
        <mxCell id="3as7ViMR6er_9PcksfhW-27" value="学生模型（待训练）" style="text;html=1;strokeColor=none;fillColor=none;align=center;verticalAlign=middle;whiteSpace=wrap;rounded=0;dashed=1;" parent="dNxyNK7c78bLwvsdeMH5-11" vertex="1">
          <mxGeometry x="165" y="170" width="120" height="20" as="geometry" />
        </mxCell>
        <mxCell id="3as7ViMR6er_9PcksfhW-28" value="Softmax T=t" style="rounded=1;whiteSpace=wrap;html=1;dashed=1;gradientColor=#FF3333;" parent="dNxyNK7c78bLwvsdeMH5-11" vertex="1">
          <mxGeometry x="400" y="65" width="80" height="32.5" as="geometry" />
        </mxCell>
        <mxCell id="3as7ViMR6er_9PcksfhW-29" value="知识" style="text;html=1;strokeColor=none;fillColor=none;align=center;verticalAlign=middle;whiteSpace=wrap;rounded=0;dashed=1;" parent="dNxyNK7c78bLwvsdeMH5-11" vertex="1">
          <mxGeometry x="420" y="45" width="40" height="20" as="geometry" />
        </mxCell>
        <mxCell id="3as7ViMR6er_9PcksfhW-49" style="edgeStyle=orthogonalEdgeStyle;rounded=0;orthogonalLoop=1;jettySize=auto;html=1;exitX=1;exitY=0.5;exitDx=0;exitDy=0;entryX=0;entryY=0.5;entryDx=0;entryDy=0;strokeWidth=2;" parent="dNxyNK7c78bLwvsdeMH5-11" source="3as7ViMR6er_9PcksfhW-31" target="3as7ViMR6er_9PcksfhW-39" edge="1">
          <mxGeometry relative="1" as="geometry" />
        </mxCell>
        <mxCell id="3as7ViMR6er_9PcksfhW-31" value="Softmax T=t" style="rounded=1;whiteSpace=wrap;html=1;dashed=1;gradientColor=#FF3333;" parent="dNxyNK7c78bLwvsdeMH5-11" vertex="1">
          <mxGeometry x="400" y="157.5" width="80" height="32.5" as="geometry" />
        </mxCell>
        <mxCell id="3as7ViMR6er_9PcksfhW-32" value="Softmax T=1" style="rounded=1;whiteSpace=wrap;html=1;dashed=1;gradientColor=#FF3333;" parent="dNxyNK7c78bLwvsdeMH5-11" vertex="1">
          <mxGeometry x="400" y="210" width="80" height="32.5" as="geometry" />
        </mxCell>
        <mxCell id="3as7ViMR6er_9PcksfhW-33" value="" style="endArrow=classic;html=1;strokeWidth=2;entryX=0;entryY=0.5;entryDx=0;entryDy=0;exitX=1;exitY=0.5;exitDx=0;exitDy=0;" parent="dNxyNK7c78bLwvsdeMH5-11" source="3as7ViMR6er_9PcksfhW-22" target="3as7ViMR6er_9PcksfhW-28" edge="1">
          <mxGeometry width="50" height="50" relative="1" as="geometry">
            <mxPoint x="280" y="98" as="sourcePoint" />
            <mxPoint x="300" y="97.5" as="targetPoint" />
          </mxGeometry>
        </mxCell>
        <mxCell id="3as7ViMR6er_9PcksfhW-35" value="" style="edgeStyle=segmentEdgeStyle;endArrow=classic;html=1;strokeWidth=2;exitX=1;exitY=0.5;exitDx=0;exitDy=0;entryX=0;entryY=0.5;entryDx=0;entryDy=0;" parent="dNxyNK7c78bLwvsdeMH5-11" source="3as7ViMR6er_9PcksfhW-23" target="3as7ViMR6er_9PcksfhW-31" edge="1">
          <mxGeometry width="50" height="50" relative="1" as="geometry">
            <mxPoint x="350" y="240" as="sourcePoint" />
            <mxPoint x="400" y="190" as="targetPoint" />
            <Array as="points">
              <mxPoint x="360" y="202" />
              <mxPoint x="360" y="174" />
            </Array>
          </mxGeometry>
        </mxCell>
        <mxCell id="3as7ViMR6er_9PcksfhW-37" value="" style="edgeStyle=segmentEdgeStyle;endArrow=classic;html=1;strokeWidth=2;exitX=1;exitY=0.5;exitDx=0;exitDy=0;entryX=0;entryY=0.5;entryDx=0;entryDy=0;" parent="dNxyNK7c78bLwvsdeMH5-11" source="3as7ViMR6er_9PcksfhW-23" target="3as7ViMR6er_9PcksfhW-32" edge="1">
          <mxGeometry width="50" height="50" relative="1" as="geometry">
            <mxPoint x="350" y="211.875" as="sourcePoint" />
            <mxPoint x="410" y="170" as="targetPoint" />
            <Array as="points">
              <mxPoint x="360" y="202" />
              <mxPoint x="360" y="226" />
            </Array>
          </mxGeometry>
        </mxCell>
        <mxCell id="3as7ViMR6er_9PcksfhW-47" style="edgeStyle=orthogonalEdgeStyle;rounded=0;orthogonalLoop=1;jettySize=auto;html=1;exitX=1;exitY=0.5;exitDx=0;exitDy=0;entryX=0;entryY=0.5;entryDx=0;entryDy=0;strokeWidth=2;" parent="dNxyNK7c78bLwvsdeMH5-11" source="3as7ViMR6er_9PcksfhW-38" target="3as7ViMR6er_9PcksfhW-43" edge="1">
          <mxGeometry relative="1" as="geometry" />
        </mxCell>
        <mxCell id="3as7ViMR6er_9PcksfhW-38" value="软标签" style="rounded=1;whiteSpace=wrap;html=1;dashed=1;gradientDirection=south;fillColor=#99FF99;" parent="dNxyNK7c78bLwvsdeMH5-11" vertex="1">
          <mxGeometry x="516" y="65" width="70" height="30" as="geometry" />
        </mxCell>
        <mxCell id="3as7ViMR6er_9PcksfhW-39" value="软标签" style="rounded=1;whiteSpace=wrap;html=1;dashed=1;gradientDirection=south;fillColor=#99FF99;" parent="dNxyNK7c78bLwvsdeMH5-11" vertex="1">
          <mxGeometry x="516" y="130" width="70" height="30" as="geometry" />
        </mxCell>
        <mxCell id="3as7ViMR6er_9PcksfhW-40" value="软标签" style="rounded=1;whiteSpace=wrap;html=1;dashed=1;gradientDirection=south;fillColor=#99FF99;" parent="dNxyNK7c78bLwvsdeMH5-11" vertex="1">
          <mxGeometry x="510" y="212.5" width="70" height="30" as="geometry" />
        </mxCell>
        <mxCell id="3as7ViMR6er_9PcksfhW-41" value="学生损失" style="rounded=1;whiteSpace=wrap;html=1;dashed=1;fillColor=#99FF99;gradientColor=none;" parent="dNxyNK7c78bLwvsdeMH5-11" vertex="1">
          <mxGeometry x="606" y="208.28" width="70" height="35.93" as="geometry" />
        </mxCell>
        <mxCell id="3as7ViMR6er_9PcksfhW-55" style="edgeStyle=orthogonalEdgeStyle;rounded=0;orthogonalLoop=1;jettySize=auto;html=1;exitX=0;exitY=0.5;exitDx=0;exitDy=0;strokeWidth=2;" parent="dNxyNK7c78bLwvsdeMH5-11" source="3as7ViMR6er_9PcksfhW-42" edge="1">
          <mxGeometry relative="1" as="geometry">
            <mxPoint x="676" y="225" as="targetPoint" />
          </mxGeometry>
        </mxCell>
        <mxCell id="3as7ViMR6er_9PcksfhW-42" value="人工标签" style="rounded=1;whiteSpace=wrap;html=1;dashed=1;fillColor=#99FF99;gradientColor=none;" parent="dNxyNK7c78bLwvsdeMH5-11" vertex="1">
          <mxGeometry x="696" y="206.57" width="70" height="35.93" as="geometry" />
        </mxCell>
        <mxCell id="3as7ViMR6er_9PcksfhW-43" value="蒸馏损失" style="rounded=1;whiteSpace=wrap;html=1;dashed=1;gradientColor=none;fillColor=#FFFFCC;" parent="dNxyNK7c78bLwvsdeMH5-11" vertex="1">
          <mxGeometry x="626" y="80" width="120" height="60" as="geometry" />
        </mxCell>
        <mxCell id="3as7ViMR6er_9PcksfhW-46" style="edgeStyle=orthogonalEdgeStyle;rounded=0;orthogonalLoop=1;jettySize=auto;html=1;exitX=1;exitY=0.5;exitDx=0;exitDy=0;strokeWidth=2;entryX=0;entryY=0.5;entryDx=0;entryDy=0;" parent="dNxyNK7c78bLwvsdeMH5-11" target="3as7ViMR6er_9PcksfhW-38" edge="1">
          <mxGeometry relative="1" as="geometry">
            <mxPoint x="510" y="80" as="targetPoint" />
            <mxPoint x="484" y="80.25" as="sourcePoint" />
          </mxGeometry>
        </mxCell>
        <mxCell id="3as7ViMR6er_9PcksfhW-9" value="" style="endArrow=classic;html=1;exitX=1;exitY=0.5;exitDx=0;exitDy=0;strokeWidth=2;" parent="1" source="3as7ViMR6er_9PcksfhW-5" edge="1">
          <mxGeometry width="50" height="50" relative="1" as="geometry">
            <mxPoint x="200" y="177.5" as="sourcePoint" />
            <mxPoint x="260" y="168" as="targetPoint" />
          </mxGeometry>
        </mxCell>
        <mxCell id="3as7ViMR6er_9PcksfhW-13" value="" style="endArrow=classic;html=1;strokeWidth=2;entryX=0;entryY=0.5;entryDx=0;entryDy=0;" parent="1" target="3as7ViMR6er_9PcksfhW-6" edge="1">
          <mxGeometry width="50" height="50" relative="1" as="geometry">
            <mxPoint x="310" y="168" as="sourcePoint" />
            <mxPoint x="260" y="178" as="targetPoint" />
            <Array as="points">
              <mxPoint x="290" y="168" />
            </Array>
          </mxGeometry>
        </mxCell>
        <mxCell id="3as7ViMR6er_9PcksfhW-48" style="edgeStyle=orthogonalEdgeStyle;rounded=0;orthogonalLoop=1;jettySize=auto;html=1;exitX=1;exitY=0.5;exitDx=0;exitDy=0;strokeWidth=2;" parent="1" source="3as7ViMR6er_9PcksfhW-39" edge="1">
          <mxGeometry relative="1" as="geometry">
            <mxPoint x="650" y="190" as="targetPoint" />
            <Array as="points">
              <mxPoint x="630" y="225" />
              <mxPoint x="630" y="190" />
            </Array>
          </mxGeometry>
        </mxCell>
        <mxCell id="3as7ViMR6er_9PcksfhW-51" style="edgeStyle=orthogonalEdgeStyle;rounded=0;orthogonalLoop=1;jettySize=auto;html=1;exitX=1;exitY=0.5;exitDx=0;exitDy=0;strokeWidth=2;" parent="1" edge="1">
          <mxGeometry relative="1" as="geometry">
            <mxPoint x="533" y="306" as="targetPoint" />
            <mxPoint x="507" y="306.25" as="sourcePoint" />
          </mxGeometry>
        </mxCell>
        <mxCell id="3as7ViMR6er_9PcksfhW-53" style="edgeStyle=orthogonalEdgeStyle;rounded=0;orthogonalLoop=1;jettySize=auto;html=1;exitX=1;exitY=0.5;exitDx=0;exitDy=0;strokeWidth=2;" parent="1" source="3as7ViMR6er_9PcksfhW-40" edge="1">
          <mxGeometry relative="1" as="geometry">
            <mxPoint x="631" y="308" as="targetPoint" />
            <mxPoint x="615" y="307.5" as="sourcePoint" />
          </mxGeometry>
        </mxCell>
      </root>
    </mxGraphModel>
  </diagram>
</mxfile>
